<svg width="512" height="512" viewBox="0 0 512 512" fill="none" xmlns="http://www.w3.org/2000/svg">
    <defs>
        <linearGradient id="tech-gradient-v2" x1="0" y1="512" x2="512" y2="0" gradientUnits="userSpaceOnUse">
             <stop offset="0%" stop-color="#1e40af" /> <stop offset="50%" stop-color="#3b82f6" /> <stop offset="100%" stop-color="#22d3ee" /> </linearGradient>
        <filter id="soft-shadow" x="-50%" y="-50%" width="200%" height="200%">
            <feGaussianBlur in="SourceAlpha" stdDeviation="8" result="blur"/>
            <feOffset in="blur" dx="0" dy="4" result="offsetBlur"/>
            <feFlood flood-color="#000000" flood-opacity="0.2" result="offsetColor"/>
            <feComposite in="offsetColor" in2="offsetBlur" operator="in" result="offsetBlur"/>
            <feMerge>
                <feMergeNode in="offsetBlur"/>
                <feMergeNode in="SourceGraphic"/>
            </feMerge>
        </filter>
    </defs>

    <g filter="url(#soft-shadow)">
        <path d="M216.4 153.6c-15.2-11.2-35.2-17.6-57.6-17.6-24.8 0-45.6 6.4-61.6 18.4-15.2 12-23.2 28.8-23.2 49.6 0 20.8 7.2 36.8 20.8 48 14.4 11.2 37.6 20.8 69.6 28 35.2 8 59.2 17.6 72 28 13.6 10.4 20.8 26.4 20.8 48.8 0 23.2-8.8 42.4-26.4 56.8-17.6 13.6-41.6 20.8-72 20.8-28 0-52-7.2-71.2-20.8-18.4-13.6-28.8-33.6-28.8-57.6H4c0 37.6 15.2 68.8 44.8 92 28.8 22.4 66.4 33.6 112.8 33.6 47.2 0 84-11.2 110.4-32.8 27.2-22.4 40.8-52.8 40.8-92 0-23.2-7.2-41.6-20.8-54.4-13.6-12.8-36.8-22.4-68.8-29.6-35.2-8-59.2-16.8-72-26.4-12.8-9.6-19.2-24.8-19.2-45.6 0-18.4 7.2-33.6 20.8-44 14.4-10.4 34.4-16 60-16 24 0 44 5.6 60.8 17.6 16.8 11.2 26.4 28 28 48h54.4c-1.6-34.4-15.2-63.2-40.8-84.8z" fill="url(#tech-gradient-v2)"/>
        
        <path d="M484 280h-53.6c-4.8-29.6-19.2-52.8-42.4-70.4-23.2-17.6-52.8-26.4-88-26.4-40 0-73.6 13.6-100 41.6-25.6 27.2-39.2 64-39.2 109.6 0 44.8 13.6 81.6 40.8 109.6 26.4 27.2 62.4 41.6 106.4 41.6 30.4 0 56-7.2 76.8-20.8 21.6-14.4 36.8-35.2 46.4-62.4H324.8v-51.2H508v140.8h-47.2v-31.2c-16.8 20-36.8 34.4-60.8 43.2-23.2 8.8-49.6 13.6-78.4 13.6-57.6 0-104.8-18.4-140.8-55.2-35.2-36-52.8-83.2-52.8-139.2 0-56 18.4-102.4 54.4-138.4 36.8-36.8 84.8-55.2 144.8-55.2 48.8 0 90.4 13.6 123.2 40 33.6 26.4 54.4 62.4 63.2 110.4H484z" fill="url(#tech-gradient-v2)"/>
    </g>
</svg>